<svg width="24" height="25" viewBox="0 0 24 25" xmlns="http://www.w3.org/2000/svg">
<g id="help-circle">
<path id="Icon" d="M9.672 10.1C9.86008 9.56533 10.2313 9.11449 10.72 8.82731C11.2086 8.54013 11.7831 8.43515 12.3417 8.53097C12.9004 8.62679 13.4071 8.91722 13.7721 9.35082C14.1371 9.78443 14.3368 10.3332 14.336 10.9C14.336 12.5 11.936 13.3 11.936 13.3M12 16.5H12.008M20 12.5C20 16.9183 16.4183 20.5 12 20.5C7.58172 20.5 4 16.9183 4 12.5C4 8.08172 7.58172 4.5 12 4.5C16.4183 4.5 20 8.08172 20 12.5Z" stroke-width="1.5" stroke-linecap="round" stroke-linejoin="round"/>
</g>
</svg>
